<svg xmlns="http://www.w3.org/2000/svg" width="512" height="512" viewBox="0 0 512 512" version="1.1"><path d="M 110.882 127.750 C 110.816 128.162, 110.828 128.871, 110.906 129.324 C 110.985 129.778, 110.655 129.905, 110.173 129.607 C 109.349 129.097, 103.756 135.068, 94.335 146.515 C 87.127 155.273, 75.180 173.677, 69.992 184.016 C 63.999 195.959, 60.569 206.076, 58.530 217.825 C 57.702 222.601, 55.443 232.944, 53.512 240.810 C 51.580 248.677, 50 255.458, 50 255.880 C 50 256.301, 53.262 259.446, 57.248 262.869 C 63.977 268.646, 64.758 269.048, 68.144 268.476 C 71.489 267.910, 72.027 268.170, 74.646 271.611 C 78.945 277.261, 91.608 286.918, 99.552 290.605 C 103.430 292.405, 109.730 294.398, 113.552 295.035 C 124.561 296.869, 142.030 299.966, 147.650 301.080 C 152.128 301.967, 153.158 302.649, 155.539 306.300 C 164.928 320.700, 177.634 332.444, 189.345 337.546 C 195.517 340.235, 195.918 340.617, 196.978 344.826 C 198.600 351.267, 201.449 356.359, 205.196 359.512 C 207.888 361.776, 208.804 363.650, 210.273 369.888 C 211.259 374.074, 212.519 379.192, 213.074 381.261 L 214.083 385.022 256.166 384.761 L 298.250 384.500 300.970 373.500 C 303.475 363.369, 304.044 362.137, 308.175 357.910 C 311.602 354.402, 313.095 351.807, 314.503 346.910 L 316.346 340.500 325.177 336.228 C 332.154 332.853, 335.637 330.334, 341.770 324.228 C 346.039 319.978, 351.730 313.255, 354.415 309.290 C 359.065 302.424, 359.542 302.032, 364.399 301.070 C 370.721 299.817, 389.034 296.581, 398.852 294.980 C 403.499 294.223, 409.039 292.363, 413.909 289.926 C 421.863 285.945, 435.208 275.384, 438.356 270.580 C 439.951 268.144, 440.561 267.919, 443.982 268.497 C 447.917 269.162, 449.194 268.328, 460.862 257.471 C 462.006 256.407, 461.581 253.422, 458.211 238.852 C 456.003 229.308, 453.443 217.675, 452.521 213 C 447.936 189.743, 432.350 162.641, 407.234 134.250 C 402.232 128.596, 400.235 127.011, 398.160 127.049 C 394.515 127.117, 365.168 132.498, 364.433 133.234 C 364.107 133.559, 364.639 137.668, 365.616 142.364 L 367.390 150.902 373.325 153.121 C 378.333 154.994, 379.739 155.160, 382.335 154.180 C 385.124 153.127, 385.677 153.274, 388.273 155.759 C 389.847 157.267, 392.742 161.749, 394.705 165.721 C 398.190 172.769, 398.295 173.330, 399.111 189.221 C 399.571 198.174, 400.400 208.425, 400.953 212 C 401.507 215.575, 401.969 218.814, 401.980 219.198 C 401.991 219.582, 400.610 219.411, 398.911 218.819 C 394.936 217.433, 387.237 218.359, 381.450 220.919 C 377.099 222.844, 376.625 222.862, 370.699 221.340 C 361.820 219.058, 341.136 220.019, 326.754 223.381 L 316.009 225.893 310.754 223.513 C 307.864 222.204, 301.913 220.644, 297.529 220.046 C 293.146 219.448, 289.255 218.631, 288.884 218.229 C 288.513 217.828, 286.084 213.538, 283.485 208.696 L 278.760 199.892 281.879 192 C 283.594 187.660, 285.694 181.496, 286.545 178.304 C 289.562 166.995, 289.691 143.909, 286.721 146.879 C 285.003 148.597, 284.131 148.216, 284.710 146 C 285.091 144.545, 284.741 144, 283.426 144 C 281.728 144, 281.733 143.915, 283.521 142.608 C 285.162 141.408, 285.235 140.988, 284.051 139.562 C 283.296 138.651, 281.442 137.027, 279.932 135.952 C 277.435 134.174, 277.227 134.155, 277.636 135.748 C 278.249 138.135, 274.226 140.751, 273.370 138.523 C 273.049 137.685, 272.336 137, 271.786 137 C 271.236 137, 271.031 137.638, 271.330 138.417 C 272.208 140.705, 269.146 141.141, 267.946 138.899 C 266.640 136.458, 268.233 134, 271.122 134 C 272.155 134, 273 133.590, 273 133.088 C 273 131.979, 266.152 130.728, 262.295 131.133 C 260.757 131.294, 258.966 131.097, 258.315 130.695 C 256.641 129.660, 241.191 131.581, 237 133.345 C 231.767 135.548, 228.200 138.710, 225.722 143.345 C 223.747 147.037, 223.510 148.892, 223.593 160 C 223.689 172.981, 224.691 177.652, 230.995 194.500 L 233.239 200.500 228.521 209 C 225.926 213.675, 223.496 217.828, 223.122 218.229 C 222.747 218.631, 218.854 219.448, 214.471 220.046 C 210.087 220.644, 204.089 222.225, 201.143 223.560 L 195.785 225.988 188.143 224.074 C 171.012 219.784, 151.390 218.706, 140.772 221.471 C 135.478 222.850, 134.838 222.816, 130.561 220.924 C 124.764 218.360, 117.067 217.432, 113.089 218.819 C 111.390 219.411, 110.003 219.582, 110.006 219.198 C 110.009 218.814, 110.468 215.800, 111.025 212.500 C 111.582 209.200, 112.438 198.961, 112.926 189.747 C 113.750 174.211, 114.029 172.541, 116.778 166.747 C 118.407 163.311, 121.262 158.788, 123.121 156.696 C 126.350 153.061, 126.646 152.944, 129.783 154.056 C 132.571 155.043, 133.948 154.889, 138.912 153.033 L 144.757 150.847 146.454 142.299 C 147.388 137.598, 147.780 133.416, 147.326 133.005 C 146.872 132.595, 140.267 131.284, 132.648 130.092 C 122.037 128.431, 118.470 128.195, 117.398 129.084 C 116.298 129.997, 116 129.899, 116 128.622 C 116 127.559, 115.139 127, 113.500 127 C 112.125 127, 110.947 127.338, 110.882 127.750 M 254.960 135.548 C 254.025 136.674, 254.105 137.103, 255.339 137.577 C 257.026 138.224, 259 137.400, 259 136.048 C 259 134.473, 256.146 134.120, 254.960 135.548 M 233.032 136.939 C 232.330 138.253, 232.323 139.082, 233.014 139.508 C 233.574 139.855, 233.774 140.557, 233.457 141.069 C 233.141 141.581, 233.359 142, 233.941 142 C 234.523 142, 235 141.325, 235 140.500 C 235 139.675, 235.408 139, 235.906 139 C 236.405 139, 236.577 138.100, 236.290 137 C 235.628 134.470, 234.367 134.447, 233.032 136.939 M 240.659 137.197 C 240.286 138.623, 240.539 138.782, 241.967 138.018 C 242.940 137.497, 244.021 137.355, 244.369 137.702 C 244.716 138.049, 245 137.680, 245 136.881 C 245 134.804, 241.212 135.080, 240.659 137.197 M 244 140.335 C 244 141.161, 243.756 142.473, 243.457 143.252 C 243.133 144.095, 243.537 144.667, 244.457 144.667 C 245.306 144.667, 246 143.842, 246 142.833 C 246 141.825, 246.034 140.674, 246.075 140.275 C 246.116 139.876, 245.666 139.389, 245.075 139.192 C 244.484 138.995, 244 139.509, 244 140.335 M 274.250 143.175 C 272.462 144.280, 271 145.873, 271 146.714 C 271 147.797, 271.366 147.957, 272.250 147.260 C 272.938 146.719, 274.845 145.953, 276.490 145.559 C 279.293 144.886, 280.949 143.483, 280.985 141.750 C 281.012 140.397, 277.563 141.127, 274.250 143.175 M 241 146.786 C 241 147.218, 241.900 147.571, 243 147.571 C 244.100 147.571, 245 147.218, 245 146.786 C 245 146.354, 244.100 146, 243 146 C 241.900 146, 241 146.354, 241 146.786 M 236 172.500 C 236 173.325, 236.450 174, 237 174 C 237.550 174, 238 173.325, 238 172.500 C 238 171.675, 237.550 171, 237 171 C 236.450 171, 236 171.675, 236 172.500 M 240.246 244.250 C 239.697 244.938, 238.926 250.173, 238.534 255.884 C 237.661 268.596, 236.069 274.942, 231.123 285.420 C 226.889 294.391, 225.257 296.183, 219.693 297.970 C 216.403 299.027, 215.928 299.554, 216.193 301.846 C 216.608 305.437, 220.989 305.774, 226.980 302.677 C 233.033 299.549, 238.057 292.041, 242.083 280.109 C 244.842 271.933, 245.393 268.672, 245.783 258.248 C 246.115 249.370, 245.899 245.583, 244.998 244.498 C 243.484 242.673, 241.586 242.574, 240.246 244.250 M 267.200 244.200 C 264.322 247.078, 267.345 277.597, 271.390 286.502 C 274.691 293.769, 284.496 303.675, 289.242 304.539 C 294.079 305.419, 296 304.623, 296 301.740 C 296 299.916, 294.812 298.834, 290.478 296.708 C 280.566 291.847, 276.919 283.565, 274.314 260 C 273.433 252.025, 272.271 244.938, 271.733 244.250 C 270.499 242.673, 268.746 242.654, 267.200 244.200 M 298.667 252.667 C 298.300 253.033, 298 253.937, 298 254.675 C 298 255.767, 298.373 255.784, 300 254.768 C 301.100 254.081, 302 253.177, 302 252.759 C 302 251.823, 299.578 251.755, 298.667 252.667 M 253.697 310.110 C 252.054 311.066, 251.910 312.765, 252.074 329.329 C 252.175 339.596, 252.686 348.044, 253.249 348.750 C 254.697 350.567, 257.780 350.280, 258.879 348.226 C 259.401 347.251, 259.857 338.723, 259.892 329.275 C 259.944 315.040, 259.690 311.832, 258.406 310.549 C 256.601 308.744, 256.121 308.699, 253.697 310.110" stroke="none" fill="#fa4304" fill-rule="evenodd"/><path d="M 0 256.002 L 0 512.004 256.250 511.752 L 512.500 511.500 512.752 255.750 L 513.004 0 256.502 0 L 0 0 0 256.002 M 0.492 256.500 C 0.492 397.300, 0.608 454.751, 0.750 384.170 C 0.892 313.588, 0.892 198.388, 0.750 128.170 C 0.608 57.951, 0.492 115.700, 0.492 256.500 M 110.882 127.750 C 110.816 128.162, 110.828 128.871, 110.906 129.324 C 110.985 129.778, 110.655 129.905, 110.173 129.607 C 109.349 129.097, 103.756 135.068, 94.335 146.515 C 87.127 155.273, 75.180 173.677, 69.992 184.016 C 63.999 195.959, 60.569 206.076, 58.530 217.825 C 57.702 222.601, 55.443 232.944, 53.512 240.810 C 51.580 248.677, 50 255.458, 50 255.880 C 50 256.301, 53.262 259.446, 57.248 262.869 C 63.977 268.646, 64.758 269.048, 68.144 268.476 C 71.489 267.910, 72.027 268.170, 74.646 271.611 C 78.945 277.261, 91.608 286.918, 99.552 290.605 C 103.430 292.405, 109.730 294.398, 113.552 295.035 C 124.561 296.869, 142.030 299.966, 147.650 301.080 C 152.128 301.967, 153.158 302.649, 155.539 306.300 C 164.928 320.700, 177.634 332.444, 189.345 337.546 C 195.517 340.235, 195.918 340.617, 196.978 344.826 C 198.600 351.267, 201.449 356.359, 205.196 359.512 C 207.888 361.776, 208.804 363.650, 210.273 369.888 C 211.259 374.074, 212.519 379.192, 213.074 381.261 L 214.083 385.022 256.166 384.761 L 298.250 384.500 300.970 373.500 C 303.475 363.369, 304.044 362.137, 308.175 357.910 C 311.602 354.402, 313.095 351.807, 314.503 346.910 L 316.346 340.500 325.177 336.228 C 332.154 332.853, 335.637 330.334, 341.770 324.228 C 346.039 319.978, 351.730 313.255, 354.415 309.290 C 359.065 302.424, 359.542 302.032, 364.399 301.070 C 370.721 299.817, 389.034 296.581, 398.852 294.980 C 403.499 294.223, 409.039 292.363, 413.909 289.926 C 421.863 285.945, 435.208 275.384, 438.356 270.580 C 439.951 268.144, 440.561 267.919, 443.982 268.497 C 447.917 269.162, 449.194 268.328, 460.862 257.471 C 462.006 256.407, 461.581 253.422, 458.211 238.852 C 456.003 229.308, 453.443 217.675, 452.521 213 C 447.936 189.743, 432.350 162.641, 407.234 134.250 C 402.232 128.596, 400.235 127.011, 398.160 127.049 C 394.515 127.117, 365.168 132.498, 364.433 133.234 C 364.107 133.559, 364.639 137.668, 365.616 142.364 L 367.390 150.902 373.325 153.121 C 378.333 154.994, 379.739 155.160, 382.335 154.180 C 385.124 153.127, 385.677 153.274, 388.273 155.759 C 389.847 157.267, 392.742 161.749, 394.705 165.721 C 398.190 172.769, 398.295 173.330, 399.111 189.221 C 399.571 198.174, 400.400 208.425, 400.953 212 C 401.507 215.575, 401.969 218.814, 401.980 219.198 C 401.991 219.582, 400.610 219.411, 398.911 218.819 C 394.936 217.433, 387.237 218.359, 381.450 220.919 C 377.099 222.844, 376.625 222.862, 370.699 221.340 C 361.820 219.058, 341.136 220.019, 326.754 223.381 L 316.009 225.893 310.754 223.513 C 307.864 222.204, 301.913 220.644, 297.529 220.046 C 293.146 219.448, 289.255 218.631, 288.884 218.229 C 288.513 217.828, 286.084 213.538, 283.485 208.696 L 278.760 199.892 281.879 192 C 283.594 187.660, 285.694 181.496, 286.545 178.304 C 289.562 166.995, 289.691 143.909, 286.721 146.879 C 285.003 148.597, 284.131 148.216, 284.710 146 C 285.091 144.545, 284.741 144, 283.426 144 C 281.728 144, 281.733 143.915, 283.521 142.608 C 285.162 141.408, 285.235 140.988, 284.051 139.562 C 283.296 138.651, 281.442 137.027, 279.932 135.952 C 277.435 134.174, 277.227 134.155, 277.636 135.748 C 278.249 138.135, 274.226 140.751, 273.370 138.523 C 273.049 137.685, 272.336 137, 271.786 137 C 271.236 137, 271.031 137.638, 271.330 138.417 C 272.208 140.705, 269.146 141.141, 267.946 138.899 C 266.640 136.458, 268.233 134, 271.122 134 C 272.155 134, 273 133.590, 273 133.088 C 273 131.979, 266.152 130.728, 262.295 131.133 C 260.757 131.294, 258.966 131.097, 258.315 130.695 C 256.641 129.660, 241.191 131.581, 237 133.345 C 231.767 135.548, 228.200 138.710, 225.722 143.345 C 223.747 147.037, 223.510 148.892, 223.593 160 C 223.689 172.981, 224.691 177.652, 230.995 194.500 L 233.239 200.500 228.521 209 C 225.926 213.675, 223.496 217.828, 223.122 218.229 C 222.747 218.631, 218.854 219.448, 214.471 220.046 C 210.087 220.644, 204.089 222.225, 201.143 223.560 L 195.785 225.988 188.143 224.074 C 171.012 219.784, 151.390 218.706, 140.772 221.471 C 135.478 222.850, 134.838 222.816, 130.561 220.924 C 124.764 218.360, 117.067 217.432, 113.089 218.819 C 111.390 219.411, 110.003 219.582, 110.006 219.198 C 110.009 218.814, 110.468 215.800, 111.025 212.500 C 111.582 209.200, 112.438 198.961, 112.926 189.747 C 113.750 174.211, 114.029 172.541, 116.778 166.747 C 118.407 163.311, 121.262 158.788, 123.121 156.696 C 126.350 153.061, 126.646 152.944, 129.783 154.056 C 132.571 155.043, 133.948 154.889, 138.912 153.033 L 144.757 150.847 146.454 142.299 C 147.388 137.598, 147.780 133.416, 147.326 133.005 C 146.872 132.595, 140.267 131.284, 132.648 130.092 C 122.037 128.431, 118.470 128.195, 117.398 129.084 C 116.298 129.997, 116 129.899, 116 128.622 C 116 127.559, 115.139 127, 113.500 127 C 112.125 127, 110.947 127.338, 110.882 127.750 M 254.960 135.548 C 254.025 136.674, 254.105 137.103, 255.339 137.577 C 257.026 138.224, 259 137.400, 259 136.048 C 259 134.473, 256.146 134.120, 254.960 135.548 M 233.032 136.939 C 232.330 138.253, 232.323 139.082, 233.014 139.508 C 233.574 139.855, 233.774 140.557, 233.457 141.069 C 233.141 141.581, 233.359 142, 233.941 142 C 234.523 142, 235 141.325, 235 140.500 C 235 139.675, 235.408 139, 235.906 139 C 236.405 139, 236.577 138.100, 236.290 137 C 235.628 134.470, 234.367 134.447, 233.032 136.939 M 240.659 137.197 C 240.286 138.623, 240.539 138.782, 241.967 138.018 C 242.940 137.497, 244.021 137.355, 244.369 137.702 C 244.716 138.049, 245 137.680, 245 136.881 C 245 134.804, 241.212 135.080, 240.659 137.197 M 244 140.335 C 244 141.161, 243.756 142.473, 243.457 143.252 C 243.133 144.095, 243.537 144.667, 244.457 144.667 C 245.306 144.667, 246 143.842, 246 142.833 C 246 141.825, 246.034 140.674, 246.075 140.275 C 246.116 139.876, 245.666 139.389, 245.075 139.192 C 244.484 138.995, 244 139.509, 244 140.335 M 274.250 143.175 C 272.462 144.280, 271 145.873, 271 146.714 C 271 147.797, 271.366 147.957, 272.250 147.260 C 272.938 146.719, 274.845 145.953, 276.490 145.559 C 279.293 144.886, 280.949 143.483, 280.985 141.750 C 281.012 140.397, 277.563 141.127, 274.250 143.175 M 241 146.786 C 241 147.218, 241.900 147.571, 243 147.571 C 244.100 147.571, 245 147.218, 245 146.786 C 245 146.354, 244.100 146, 243 146 C 241.900 146, 241 146.354, 241 146.786 M 236 172.500 C 236 173.325, 236.450 174, 237 174 C 237.550 174, 238 173.325, 238 172.500 C 238 171.675, 237.550 171, 237 171 C 236.450 171, 236 171.675, 236 172.500 M 240.246 244.250 C 239.697 244.938, 238.926 250.173, 238.534 255.884 C 237.661 268.596, 236.069 274.942, 231.123 285.420 C 226.889 294.391, 225.257 296.183, 219.693 297.970 C 216.403 299.027, 215.928 299.554, 216.193 301.846 C 216.608 305.437, 220.989 305.774, 226.980 302.677 C 233.033 299.549, 238.057 292.041, 242.083 280.109 C 244.842 271.933, 245.393 268.672, 245.783 258.248 C 246.115 249.370, 245.899 245.583, 244.998 244.498 C 243.484 242.673, 241.586 242.574, 240.246 244.250 M 267.200 244.200 C 264.322 247.078, 267.345 277.597, 271.390 286.502 C 274.691 293.769, 284.496 303.675, 289.242 304.539 C 294.079 305.419, 296 304.623, 296 301.740 C 296 299.916, 294.812 298.834, 290.478 296.708 C 280.566 291.847, 276.919 283.565, 274.314 260 C 273.433 252.025, 272.271 244.938, 271.733 244.250 C 270.499 242.673, 268.746 242.654, 267.200 244.200 M 298.667 252.667 C 298.300 253.033, 298 253.937, 298 254.675 C 298 255.767, 298.373 255.784, 300 254.768 C 301.100 254.081, 302 253.177, 302 252.759 C 302 251.823, 299.578 251.755, 298.667 252.667 M 253.697 310.110 C 252.054 311.066, 251.910 312.765, 252.074 329.329 C 252.175 339.596, 252.686 348.044, 253.249 348.750 C 254.697 350.567, 257.780 350.280, 258.879 348.226 C 259.401 347.251, 259.857 338.723, 259.892 329.275 C 259.944 315.040, 259.690 311.832, 258.406 310.549 C 256.601 308.744, 256.121 308.699, 253.697 310.110" stroke="none" fill="#040404" fill-rule="evenodd"/></svg>